<svg width="22" height="22" viewBox="0 0 22 22" fill="none" xmlns="http://www.w3.org/2000/svg">
<path fill-rule="evenodd" clip-rule="evenodd" d="M20.4211 2.04424L14.5515 3.68861C15.3034 4.03024 16.0136 4.4673 16.6634 4.99264C17.7332 5.85756 18.6034 6.93254 19.2252 8.14318L20.4211 2.04424ZM11.6291 2.87539L20.0022 0.52968C20.2587 0.451659 20.5313 0.443343 20.7922 0.505722C21.0509 0.567579 21.2885 0.696692 21.481 0.879815C21.6727 1.05266 21.8184 1.27057 21.905 1.51397C21.9939 1.76404 22.0173 2.0327 21.9731 2.2944L21.9694 2.31464L20.2409 11.1302C20.1739 11.472 19.8899 11.7288 19.5432 11.7613C19.1964 11.7938 18.8697 11.5942 18.7403 11.2709C18.6421 11.0253 18.5397 10.7531 18.4528 10.4748L18.4475 10.4574L18.445 10.4483C17.988 8.78187 17.0192 7.30101 15.6755 6.21466C14.3432 5.13765 12.7091 4.50231 11 4.39624C9.29089 4.50231 7.65673 5.13765 6.32451 6.21466C4.98074 7.30101 4.012 8.78187 3.55498 10.4483L3.55103 10.4622C3.4771 10.7136 3.38918 10.9452 3.31169 11.1493L3.31169 11.1493L3.31168 11.1493L3.31168 11.1493L3.31167 11.1493C3.29587 11.1909 3.28051 11.2314 3.26579 11.2706C3.14238 11.5997 2.81544 11.8068 2.46518 11.7778C2.11492 11.7487 1.82655 11.4906 1.75904 11.1457L0.0304964 2.31438L0.0268525 2.2944C-0.0173776 2.0327 0.00607988 1.76404 0.0949939 1.51397C0.181533 1.27058 0.327279 1.05267 0.518951 0.879825C0.711487 0.696698 0.949085 0.56758 1.20777 0.505722C1.46862 0.443343 1.7413 0.451659 1.99772 0.529678L10.3708 2.87539C10.5648 2.85273 10.7598 2.8358 10.9555 2.82471C10.9851 2.82303 11.0148 2.82303 11.0444 2.82471C11.2402 2.8358 11.4352 2.85273 11.6291 2.87539ZM7.4485 3.68861L1.57884 2.04424L2.77318 8.1462C3.39509 6.93433 4.26583 5.85828 5.33659 4.99264C5.98641 4.4673 6.69658 4.03024 7.4485 3.68861ZM0.97645 12.2755C0.555474 12.1703 0.128889 12.4262 0.0236451 12.8472C-0.081599 13.2682 0.174352 13.6948 0.595327 13.8L6.88095 15.3714C7.30192 15.4767 7.72851 15.2207 7.83375 14.7997C7.93899 14.3788 7.68304 13.9522 7.26207 13.8469L0.97645 12.2755ZM9.42852 16.1805C9.42852 15.7465 9.7803 15.3948 10.2142 15.3948H11.7856C12.2196 15.3948 12.5713 15.7465 12.5713 16.1805C12.5713 16.6144 12.2196 16.9662 11.7856 16.9662H10.2142C9.7803 16.9662 9.42852 16.6144 9.42852 16.1805ZM6.96799 17.362C7.18328 17.7388 7.05238 18.2187 6.67562 18.434L1.17571 21.5768C0.798949 21.7921 0.318999 21.6612 0.103708 21.2844C-0.111583 20.9077 0.0193124 20.4277 0.39607 20.2124L5.89599 17.0696C6.27274 16.8543 6.75269 16.9852 6.96799 17.362ZM8.81878 19.8621C8.39586 19.765 7.97427 20.029 7.87712 20.452C7.77997 20.8749 8.04406 21.2965 8.46697 21.3936C10.1339 21.7765 11.866 21.7765 13.533 21.3936C13.9559 21.2965 14.22 20.8749 14.1228 20.452C14.0257 20.029 13.6041 19.765 13.1812 19.8621C11.7457 20.1918 10.2542 20.1918 8.81878 19.8621ZM15.032 17.362C15.2473 16.9852 15.7272 16.8543 16.104 17.0696L21.6039 20.2124C21.9807 20.4277 22.1116 20.9077 21.8963 21.2844C21.681 21.6612 21.201 21.7921 20.8243 21.5768L15.3244 18.434C14.9476 18.2187 14.8167 17.7388 15.032 17.362ZM21.4047 13.8C21.8257 13.6948 22.0816 13.2682 21.9764 12.8472C21.8711 12.4262 21.4445 12.1703 21.0236 12.2755L14.738 13.8469C14.317 13.9522 14.061 14.3788 14.1663 14.7997C14.2715 15.2207 14.6981 15.4767 15.1191 15.3714L21.4047 13.8Z" fill="#162C37"/>
</svg>
