<svg width="24" height="24" viewBox="0 0 24 24" fill="none" xmlns="http://www.w3.org/2000/svg">
<path fill-rule="evenodd" clip-rule="evenodd" d="M6.75518 3.24146C8.37317 2.39839 10.1673 1.94895 11.9917 1.92969L12.0106 1.92972C13.8247 1.95426 15.6078 2.40409 17.2164 3.24302C17.5476 3.41222 17.9142 3.50066 18.2861 3.50107H20.6429C21.268 3.50107 21.8676 3.74941 22.3096 4.19146C22.7517 4.6335 23 5.23305 23 5.8582V10.5725C23 11.6144 22.5861 12.6136 21.8493 13.3504C21.2692 13.9305 20.5263 14.3105 19.728 14.4458L19.3552 16.3339L19.3551 16.3343C19.0203 18.0389 18.1038 19.5743 16.7623 20.6781C15.4207 21.7819 13.7373 22.3854 11.9999 22.3854C10.2626 22.3854 8.57917 21.7819 7.23754 20.6781C5.89603 19.5744 4.97954 18.0389 4.64474 16.3343L4.64465 16.3339L4.27184 14.4458C3.47358 14.3104 2.73075 13.9305 2.15065 13.3504C1.4139 12.6136 1 11.6144 1 10.5725V5.8582C1 5.23305 1.24834 4.6335 1.69039 4.19146C2.13244 3.74941 2.73199 3.50107 3.35714 3.50107H5.70629C6.0708 3.4931 6.42902 3.40444 6.75518 3.24146ZM18.2857 12.9296H19.057H19.0714L19.0825 12.9296C19.7036 12.9267 20.2987 12.6787 20.7382 12.2392C21.1802 11.7972 21.4286 11.1976 21.4286 10.5725V5.8582C21.4286 5.64982 21.3458 5.44997 21.1984 5.30262C21.0511 5.15527 20.8512 5.07249 20.6429 5.07249H18.2857L18.285 5.07249C17.6633 5.0719 17.0507 4.92379 16.4975 4.64035L16.4922 4.63765L16.4922 4.63763C15.1037 3.91301 13.5648 3.5238 11.9988 3.50113C10.423 3.51925 8.87358 3.90861 7.47632 4.63766L7.46567 4.64321L7.46563 4.64313C6.92619 4.91419 6.33284 5.06086 5.72924 5.07235L5.71428 5.07249H3.35714C3.14876 5.07249 2.94891 5.15527 2.80156 5.30262C2.65421 5.44997 2.57143 5.64982 2.57143 5.8582V10.5725C2.57143 11.1976 2.81977 11.7972 3.26182 12.2392C3.70124 12.6786 4.29631 12.9267 4.91744 12.9296L4.94287 12.9296H5.71428C5.71638 12.9296 5.71848 12.9296 5.72058 12.9296C5.92669 12.9279 6.124 12.8453 6.26987 12.6995C6.41722 12.5521 6.5 12.3523 6.5 12.1439V9.00105C6.5 8.56711 6.85178 8.21534 7.28571 8.21534C7.71965 8.21534 8.07143 8.56711 8.07143 9.00105V12.1439C8.07143 12.4141 8.02502 12.6796 7.93663 12.9296C7.82053 13.2579 7.632 13.5597 7.38103 13.8106C6.979 14.2127 6.44669 14.4545 5.88332 14.495L6.18648 16.0303L6.18664 16.0311C6.45119 17.3785 7.17558 18.5922 8.23594 19.4646C9.29631 20.337 10.6268 20.814 11.9999 20.814C13.3731 20.814 14.7036 20.337 15.7639 19.4646C16.8243 18.5922 17.5487 17.3785 17.8132 16.0311L17.8134 16.0303L18.1165 14.495C17.5532 14.4545 17.021 14.2127 16.619 13.8106C16.368 13.5597 16.1795 13.258 16.0634 12.9296C15.975 12.6796 15.9286 12.4141 15.9286 12.1439V9.00105C15.9286 8.56711 16.2803 8.21534 16.7143 8.21534C17.1482 8.21534 17.5 8.56711 17.5 9.00105V12.1439C17.5 12.3523 17.5828 12.5521 17.7301 12.6995C17.8771 12.8465 18.0764 12.9292 18.2842 12.9296C18.2847 12.9296 18.2852 12.9296 18.2857 12.9296ZM7.93663 12.9296C7.93663 12.9296 7.93663 12.9296 7.93663 12.9296V12.9296ZM11.2141 16.0724C10.7801 16.0724 10.4284 16.4242 10.4284 16.8581C10.4284 17.2921 10.7801 17.6439 11.2141 17.6439H12.7855C13.2195 17.6439 13.5712 17.2921 13.5712 16.8581C13.5712 16.4242 13.2195 16.0724 12.7855 16.0724H11.2141Z" fill="#162C37"/>
</svg>
